<svg width="97" height="34" viewBox="0 0 97 34" fill="none" xmlns="http://www.w3.org/2000/svg">
<path d="M88.6756 0.268173H8.58252C8.29057 0.268173 8.00212 0.268173 7.71095 0.269818C7.4672 0.271462 7.2254 0.27624 6.97932 0.280261C6.44471 0.286758 5.91137 0.335334 5.38391 0.425566C4.85719 0.517762 4.34698 0.691577 3.87052 0.941134C3.39464 1.1928 2.95982 1.51982 2.58183 1.91032C2.20185 2.29972 1.88511 2.74982 1.64378 3.24331C1.40179 3.73581 1.234 4.26357 1.14619 4.80837C1.05754 5.35247 1.00984 5.90285 1.00352 6.45457C0.996128 6.70668 0.995348 6.95963 0.991455 7.21177V26.2181C0.995348 26.4734 0.996128 26.7208 1.00352 26.9762C1.00985 27.5279 1.05755 28.0782 1.14619 28.6223C1.23375 29.1674 1.40156 29.6955 1.64378 30.1882C1.885 30.6801 2.20178 31.1283 2.58183 31.5156C2.95839 31.9078 3.39349 32.235 3.87052 32.4848C4.34697 32.735 4.85714 32.9099 5.38391 33.0035C5.91146 33.093 6.44475 33.1416 6.97932 33.1489C7.2254 33.1545 7.4672 33.1577 7.71095 33.1577C8.00211 33.1593 8.29058 33.1593 8.58252 33.1593H88.6756C88.9617 33.1593 89.2525 33.1593 89.5386 33.1577C89.7812 33.1577 90.03 33.1545 90.2726 33.1489C90.8061 33.142 91.3384 33.0934 91.8649 33.0035C92.3933 32.9092 92.9053 32.7344 93.3841 32.4848C93.8607 32.2349 94.2954 31.9077 94.6716 31.5156C95.0507 31.1268 95.3682 30.6789 95.6124 30.1882C95.8528 29.6951 96.019 29.1671 96.1053 28.6223C96.194 28.0781 96.2434 27.5279 96.253 26.9762C96.2561 26.7208 96.2561 26.4734 96.2561 26.2181C96.2623 25.9194 96.2623 25.6223 96.2623 25.3187V8.10953C96.2623 7.8084 96.2623 7.50968 96.2561 7.21177C96.2561 6.95963 96.2561 6.70668 96.253 6.45454C96.2434 5.90277 96.194 5.35251 96.1053 4.80833C96.0187 4.26386 95.8525 3.73613 95.6124 3.24327C95.1209 2.25414 94.3416 1.44899 93.3841 0.94106C92.9053 0.692113 92.3933 0.518344 91.8649 0.425492C91.3385 0.334862 90.8062 0.28627 90.2726 0.280146C90.03 0.276133 89.7812 0.271314 89.5386 0.269711C89.2525 0.268066 88.9617 0.268066 88.6756 0.268066V0.268173Z" fill="#A6A6A6"/>
<path d="M7.7146 32.44C7.47203 32.44 7.23532 32.4368 6.99465 32.4312C6.49609 32.4245 5.99869 32.3796 5.50653 32.297C5.04762 32.2154 4.60306 32.0636 4.18751 31.8465C3.77578 31.6313 3.40024 31.349 3.07529 31.0106C2.74563 30.6762 2.47118 30.2883 2.26281 29.8623C2.05213 29.4335 1.90634 28.974 1.83049 28.4996C1.74859 27.9899 1.70428 27.4745 1.69794 26.9578C1.69289 26.7844 1.68628 26.207 1.68628 26.207V7.2119C1.68628 7.2119 1.69332 6.64337 1.69797 6.47634C1.70405 5.96051 1.7481 5.4459 1.82976 4.93698C1.90575 4.4613 2.05166 4.00042 2.26244 3.57027C2.47005 3.14458 2.74298 2.7564 3.07065 2.42076C3.39795 2.08193 3.77469 1.79823 4.18712 1.58001C4.60172 1.36365 5.04544 1.21288 5.50342 1.13274C5.99719 1.04933 6.49632 1.00424 6.99661 0.997833L7.71499 0.987793H89.5345L90.2614 0.998236C90.7572 1.00432 91.2518 1.04901 91.741 1.13193C92.2036 1.21308 92.652 1.3649 93.0713 1.58242C93.8976 2.02221 94.5699 2.718 94.994 3.57227C95.2014 3.99945 95.3451 4.45658 95.4201 4.92814C95.5027 5.44125 95.549 5.9599 95.5585 6.47996C95.5608 6.71283 95.5608 6.96296 95.5608 7.2119C95.5671 7.52026 95.5671 7.81375 95.5671 8.10966V25.3189C95.5671 25.6176 95.5671 25.9091 95.5608 26.203C95.5608 26.4704 95.5608 26.7153 95.5577 26.9674C95.5484 27.4782 95.5029 27.9876 95.4216 28.4915C95.3473 28.9693 95.2023 29.4325 94.9917 29.8647C94.7818 30.2861 94.509 30.6706 94.1831 31.0042C93.8579 31.3444 93.4817 31.6283 93.069 31.845C92.6508 32.0637 92.2031 32.2161 91.741 32.297C91.2489 32.3801 90.7514 32.4249 90.2528 32.4312C90.0196 32.4368 89.7755 32.44 89.5384 32.44L88.6753 32.4416L7.7146 32.44Z" fill="black"/>
<path d="M20.7113 16.9613C20.7199 16.275 20.8964 15.602 21.2245 15.0051C21.5525 14.4082 22.0214 13.9066 22.5875 13.5471C22.2279 13.0166 21.7534 12.5801 21.2018 12.2721C20.6502 11.9641 20.0367 11.7932 19.41 11.7729C18.073 11.628 16.7769 12.5992 16.0956 12.5992C15.4012 12.5992 14.3523 11.7873 13.2227 11.8113C12.4921 11.8357 11.7801 12.0551 11.156 12.4482C10.5319 12.8413 10.0171 13.3947 9.6616 14.0544C8.12184 16.8077 9.27036 20.8542 10.7453 23.0798C11.4833 24.1696 12.3457 25.3869 13.4742 25.3438C14.5786 25.2965 14.991 24.6165 16.324 24.6165C17.6446 24.6165 18.0316 25.3438 19.183 25.3163C20.368 25.2964 21.1146 24.2217 21.8266 23.1215C22.3568 22.345 22.7648 21.4868 23.0355 20.5786C22.3471 20.2779 21.7596 19.7745 21.3463 19.1313C20.933 18.488 20.7122 17.7333 20.7113 16.9613Z" fill="white"/>
<path d="M18.5364 10.3096C19.1825 9.50852 19.5008 8.47888 19.4237 7.43933C18.4366 7.54641 17.5248 8.03366 16.87 8.80399C16.5499 9.18032 16.3046 9.61813 16.1484 10.0924C15.9922 10.5667 15.928 11.0681 15.9595 11.568C16.4532 11.5732 16.9416 11.4627 17.388 11.2447C17.8344 11.0268 18.227 10.707 18.5364 10.3096Z" fill="white"/>
<path d="M34.6703 22.5852H30.9018L29.9968 25.3451H28.4006L31.9701 15.134H33.6285L37.198 25.3451H35.5746L34.6703 22.5852ZM31.2921 21.3116H34.2793L32.8067 16.8324H32.7655L31.2921 21.3116Z" fill="white"/>
<path d="M44.9068 21.6229C44.9068 23.9364 43.7079 25.4228 41.8987 25.4228C41.4404 25.4475 40.9846 25.3385 40.5835 25.1081C40.1824 24.8778 39.8522 24.5354 39.6307 24.1203H39.5965V27.8077H38.1169V17.9002H39.5491V19.1384H39.5763C39.808 18.7253 40.1437 18.3847 40.5479 18.1529C40.952 17.9212 41.4095 17.8069 41.8715 17.8223C43.7009 17.8223 44.9068 19.3159 44.9068 21.6229ZM43.386 21.6229C43.386 20.1157 42.6319 19.1248 41.4812 19.1248C40.3507 19.1248 39.5903 20.1366 39.5903 21.6229C39.5903 23.123 40.3507 24.1275 41.4812 24.1275C42.6319 24.1275 43.386 23.1438 43.386 21.6229Z" fill="white"/>
<path d="M52.8404 21.6229C52.8404 23.9364 51.6415 25.4227 49.8323 25.4227C49.374 25.4475 48.9182 25.3385 48.5171 25.1081C48.116 24.8778 47.7858 24.5354 47.5643 24.1203H47.5301V27.8077H46.0505V17.9002H47.4827V19.1384H47.5099C47.7415 18.7253 48.0773 18.3847 48.4814 18.1529C48.8856 17.9212 49.343 17.8069 49.805 17.8223C51.6345 17.8223 52.8404 19.3159 52.8404 21.6229ZM51.3196 21.6229C51.3196 20.1157 50.5654 19.1248 49.4148 19.1248C48.2843 19.1248 47.5239 20.1366 47.5239 21.6229C47.5239 23.1229 48.2843 24.1275 49.4148 24.1275C50.5655 24.1275 51.3196 23.1438 51.3196 21.6229H51.3196Z" fill="white"/>
<path d="M58.0839 22.5C58.1935 23.5126 59.146 24.1774 60.4475 24.1774C61.6946 24.1774 62.5918 23.5126 62.5918 22.5995C62.5918 21.807 62.0507 21.3324 60.7694 21.0072L59.4881 20.6884C57.6726 20.2355 56.8298 19.3586 56.8298 17.9357C56.8298 16.1739 58.3164 14.9637 60.4273 14.9637C62.5164 14.9637 63.9486 16.1739 63.9968 17.9357H62.5032C62.4138 16.9167 61.5982 16.3016 60.4063 16.3016C59.2144 16.3016 58.3988 16.9239 58.3988 17.8297C58.3988 18.5516 58.9197 18.9764 60.194 19.3016L61.2833 19.5778C63.3118 20.0732 64.1546 20.9148 64.1546 22.4084C64.1546 24.3187 62.6812 25.5152 60.3378 25.5152C58.1453 25.5152 56.665 24.3468 56.5693 22.4999L58.0839 22.5Z" fill="white"/>
<path d="M67.3479 16.1387V17.9005H68.7186V19.1106H67.3479V23.2148C67.3479 23.8524 67.6223 24.1495 68.2249 24.1495C68.3876 24.1465 68.5501 24.1347 68.7116 24.1141V25.317C68.4407 25.3693 68.1653 25.393 67.8898 25.3877C66.4304 25.3877 65.8613 24.8216 65.8613 23.3777V19.1106H64.8132V17.9005H65.8613V16.1387H67.3479Z" fill="white"/>
<path d="M69.5122 21.6231C69.5122 19.2807 70.8479 17.8088 72.9309 17.8088C75.0208 17.8088 76.3503 19.2807 76.3503 21.6231C76.3503 23.9719 75.0278 25.4374 72.9309 25.4374C70.8347 25.4374 69.5122 23.9719 69.5122 21.6231ZM74.8427 21.6231C74.8427 20.0163 74.1297 19.068 72.9308 19.068C71.7319 19.068 71.0198 20.0235 71.0198 21.6231C71.0198 23.2364 71.7319 24.1775 72.9308 24.1775C74.1297 24.1775 74.8427 23.2364 74.8427 21.6231H74.8427Z" fill="white"/>
<path d="M77.5701 17.9004H78.9812V19.1675H79.0155C79.1109 18.7717 79.3354 18.422 79.6512 18.1771C79.9669 17.9321 80.3547 17.8069 80.7493 17.8225C80.9198 17.8218 81.0898 17.841 81.2562 17.8795V19.3088C81.0409 19.2409 80.8164 19.2097 80.5914 19.2165C80.3765 19.2075 80.1622 19.2466 79.9633 19.3312C79.7644 19.4158 79.5855 19.5439 79.439 19.7066C79.2926 19.8693 79.1819 20.0629 79.1147 20.2739C79.0475 20.485 79.0253 20.7085 79.0496 20.9293V25.345H77.5701L77.5701 17.9004Z" fill="white"/>
<path d="M88.0779 23.1585C87.8788 24.5099 86.6045 25.4374 84.9741 25.4374C82.8772 25.4374 81.5757 23.9864 81.5757 21.6585C81.5757 19.3233 82.8842 17.8088 84.9119 17.8088C86.9062 17.8088 88.1603 19.2237 88.1603 21.481V22.0045H83.0693V22.0969C83.0458 22.3709 83.079 22.6469 83.1667 22.9066C83.2544 23.1663 83.3946 23.4038 83.578 23.6032C83.7614 23.8026 83.9838 23.9595 84.2304 24.0634C84.477 24.1672 84.7422 24.2157 85.0083 24.2056C85.358 24.2394 85.7088 24.1558 86.0088 23.9671C86.3087 23.7785 86.5416 23.4948 86.6729 23.1585L88.0779 23.1585ZM83.0762 20.9365H86.6799C86.6932 20.6902 86.6571 20.4437 86.5737 20.2124C86.4904 19.9812 86.3617 19.7703 86.1956 19.5928C86.0296 19.4154 85.8299 19.2754 85.609 19.1814C85.3881 19.0875 85.1508 19.0418 84.9119 19.0471C84.671 19.0456 84.4321 19.0934 84.2092 19.1878C83.9862 19.2821 83.7836 19.4211 83.6129 19.5968C83.4422 19.7725 83.3069 19.9813 83.2148 20.2112C83.1227 20.4412 83.0756 20.6877 83.0762 20.9366V20.9365Z" fill="white"/>
<path d="M31.1068 7.44758C31.417 7.42459 31.7283 7.47299 32.0181 7.58929C32.308 7.70559 32.5693 7.88688 32.7832 8.1201C32.997 8.35332 33.158 8.63265 33.2547 8.93794C33.3514 9.24323 33.3812 9.56686 33.3421 9.88551C33.3421 11.453 32.5218 12.354 31.1068 12.354H29.3909V7.44758H31.1068ZM30.1287 11.6601H31.0244C31.246 11.6738 31.4678 11.6363 31.6737 11.5502C31.8795 11.4642 32.0642 11.3319 32.2143 11.1628C32.3643 10.9938 32.476 10.7923 32.5412 10.5731C32.6064 10.3539 32.6234 10.1224 32.591 9.89551C32.621 9.66952 32.6023 9.43947 32.5361 9.22184C32.47 9.00421 32.358 8.8044 32.2083 8.63671C32.0585 8.46902 31.8747 8.33761 31.6701 8.2519C31.4654 8.16619 31.2449 8.1283 31.0244 8.14094H30.1287V11.6601Z" fill="white"/>
<path d="M34.1755 10.5012C34.1529 10.2579 34.1799 10.0124 34.2546 9.78046C34.3293 9.54852 34.4501 9.33527 34.6093 9.15438C34.7685 8.97349 34.9625 8.82897 35.179 8.73007C35.3954 8.63117 35.6295 8.58008 35.8661 8.58008C36.1028 8.58008 36.3369 8.63117 36.5533 8.73007C36.7697 8.82897 36.9638 8.97349 37.123 9.15438C37.2821 9.33527 37.403 9.54852 37.4777 9.78046C37.5524 10.0124 37.5793 10.2579 37.5568 10.5012C37.5798 10.7448 37.5531 10.9907 37.4786 11.223C37.4041 11.4553 37.2834 11.6689 37.1241 11.8502C36.9649 12.0314 36.7707 12.1762 36.5541 12.2753C36.3374 12.3745 36.1031 12.4257 35.8661 12.4257C35.6292 12.4257 35.3949 12.3745 35.1782 12.2753C34.9615 12.1762 34.7674 12.0314 34.6081 11.8502C34.4489 11.6689 34.3282 11.4553 34.2537 11.223C34.1791 10.9907 34.1525 10.7448 34.1755 10.5012ZM36.8291 10.5012C36.8291 9.69863 36.48 9.22927 35.8673 9.22927C35.2523 9.22927 34.9063 9.69863 34.9063 10.5012C34.9063 11.3103 35.2523 11.776 35.8673 11.776C36.48 11.776 36.8291 11.307 36.8291 10.5012H36.8291Z" fill="white"/>
<path d="M42.0513 12.3538H41.3173L40.5764 9.62677H40.5204L39.7825 12.3538H39.0556L38.0674 8.65112H38.785L39.4272 11.4765H39.4801L40.2172 8.65112H40.8959L41.633 11.4765H41.6889L42.328 8.65112H43.0356L42.0513 12.3538Z" fill="white"/>
<path d="M43.8672 8.65141H44.5483V9.23961H44.6011C44.6908 9.02835 44.8421 8.85126 45.0339 8.73301C45.2256 8.61476 45.4484 8.56125 45.671 8.57994C45.8454 8.56639 46.0206 8.59356 46.1835 8.65942C46.3463 8.72528 46.4928 8.82815 46.612 8.96041C46.7311 9.09267 46.82 9.25092 46.8719 9.42345C46.9238 9.59599 46.9375 9.77837 46.9118 9.95709V12.354H46.2043V10.1406C46.2043 9.54557 45.954 9.24965 45.4307 9.24965C45.3123 9.24396 45.1941 9.26477 45.0842 9.31068C44.9742 9.35659 44.8752 9.4265 44.7939 9.51562C44.7126 9.60475 44.6509 9.71097 44.6131 9.82702C44.5753 9.94307 44.5622 10.0662 44.5747 10.188V12.3541H43.8672L43.8672 8.65141Z" fill="white"/>
<path d="M48.0388 7.20581H48.7463V12.3539H48.0388V7.20581Z" fill="white"/>
<path d="M49.7301 10.5008C49.7076 10.2575 49.7346 10.0119 49.8093 9.78C49.8841 9.54805 50.0049 9.33479 50.1641 9.1539C50.3233 8.97301 50.5173 8.82848 50.7338 8.72958C50.9502 8.63068 51.1843 8.57959 51.421 8.57959C51.6577 8.57959 51.8918 8.63068 52.1082 8.72958C52.3247 8.82848 52.5187 8.97301 52.6779 9.1539C52.8371 9.33479 52.9579 9.54805 53.0327 9.78C53.1074 10.0119 53.1344 10.2575 53.1118 10.5008C53.1348 10.7444 53.1081 10.9902 53.0336 11.2226C52.9591 11.4549 52.8383 11.6685 52.679 11.8497C52.5198 12.031 52.3256 12.1758 52.109 12.2749C51.8923 12.374 51.658 12.4252 51.421 12.4252C51.184 12.4252 50.9497 12.374 50.733 12.2749C50.5164 12.1758 50.3222 12.031 50.1629 11.8497C50.0037 11.6685 49.8829 11.4549 49.8084 11.2226C49.7339 10.9902 49.7072 10.7444 49.7301 10.5008ZM52.3837 10.5008C52.3837 9.69821 52.0346 9.22885 51.422 9.22885C50.807 9.22885 50.461 9.69821 50.461 10.5008C50.461 11.3099 50.807 11.7756 51.422 11.7756C52.0346 11.7756 52.3837 11.3066 52.3837 10.5008H52.3837Z" fill="white"/>
<path d="M53.8564 11.3071C53.8564 10.6406 54.3369 10.2564 55.1898 10.2017L56.1609 10.1439V9.82433C56.1609 9.43327 55.9106 9.21244 55.427 9.21244C55.032 9.21244 54.7583 9.3622 54.6798 9.62399H53.9948C54.0671 8.988 54.6464 8.58008 55.4596 8.58008C56.3584 8.58008 56.8653 9.0422 56.8653 9.82433V12.3542H56.1843V11.8339H56.1283C56.0147 12.0205 55.8551 12.1727 55.6659 12.2748C55.4767 12.3769 55.2647 12.4254 55.0514 12.4152C54.9009 12.4314 54.7488 12.4148 54.6049 12.3665C54.461 12.3183 54.3285 12.2394 54.2159 12.135C54.1033 12.0306 54.0132 11.903 53.9512 11.7604C53.8893 11.6178 53.857 11.4634 53.8564 11.3071ZM56.1609 10.9907V10.6811L55.2855 10.739C54.7918 10.7731 54.5678 10.9465 54.5678 11.2729C54.5678 11.6062 54.8477 11.8001 55.2326 11.8001C55.3454 11.8119 55.4593 11.8001 55.5676 11.7655C55.6759 11.7309 55.7763 11.6742 55.8629 11.5987C55.9495 11.5231 56.0205 11.4304 56.0717 11.326C56.1229 11.2215 56.1533 11.1075 56.1609 10.9907Z" fill="white"/>
<path d="M57.7954 10.501C57.7954 9.33098 58.3778 8.5898 59.2835 8.5898C59.5076 8.57914 59.7299 8.63457 59.9246 8.7496C60.1193 8.86463 60.2783 9.03452 60.3829 9.2394H60.4358V7.20581H61.1433V12.3539H60.4653V11.7689H60.4093C60.2966 11.9724 60.1321 12.1402 59.9337 12.254C59.7352 12.3679 59.5104 12.4235 59.2835 12.4149C58.3715 12.4149 57.7954 11.6738 57.7954 10.501ZM58.5263 10.501C58.5263 11.2863 58.8847 11.7589 59.4842 11.7589C60.0805 11.7589 60.449 11.2795 60.449 10.5042C60.449 9.73248 60.0766 9.24626 59.4842 9.24626C58.8886 9.24626 58.5263 9.72204 58.5263 10.501H58.5263Z" fill="white"/>
<path d="M64.0705 10.5012C64.048 10.2579 64.0749 10.0124 64.1496 9.78046C64.2243 9.54852 64.3452 9.33527 64.5043 9.15438C64.6635 8.97349 64.8575 8.82897 65.074 8.73007C65.2904 8.63117 65.5245 8.58008 65.7611 8.58008C65.9978 8.58008 66.2319 8.63117 66.4483 8.73007C66.6647 8.82897 66.8588 8.97349 67.018 9.15438C67.1771 9.33527 67.298 9.54852 67.3727 9.78046C67.4474 10.0124 67.4743 10.2579 67.4518 10.5012C67.4748 10.7448 67.4481 10.9907 67.3736 11.223C67.2991 11.4553 67.1784 11.6689 67.0191 11.8502C66.8599 12.0314 66.6657 12.1762 66.4491 12.2753C66.2324 12.3745 65.9981 12.4257 65.7611 12.4257C65.5242 12.4257 65.2899 12.3745 65.0732 12.2753C64.8566 12.1762 64.6624 12.0314 64.5032 11.8502C64.3439 11.6689 64.2232 11.4553 64.1487 11.223C64.0742 10.9907 64.0475 10.7448 64.0705 10.5012ZM66.7241 10.5012C66.7241 9.69863 66.375 9.22927 65.7623 9.22927C65.1473 9.22927 64.8014 9.69863 64.8014 10.5012C64.8014 11.3103 65.1473 11.776 65.7623 11.776C66.375 11.776 66.7241 11.307 66.7241 10.5012Z" fill="white"/>
<path d="M68.4011 8.65141H69.0822V9.23961H69.1351C69.2248 9.02835 69.376 8.85126 69.5678 8.73301C69.7596 8.61476 69.9823 8.56125 70.2049 8.57994C70.3793 8.56639 70.5545 8.59356 70.7174 8.65942C70.8803 8.72528 71.0267 8.82815 71.1459 8.96041C71.2651 9.09267 71.3539 9.25092 71.4058 9.42345C71.4577 9.59599 71.4714 9.77837 71.4458 9.95709V12.354H70.7383V10.1406C70.7383 9.54557 70.4879 9.24965 69.9647 9.24965C69.8462 9.24396 69.728 9.26477 69.6181 9.31068C69.5082 9.35659 69.4092 9.4265 69.3279 9.51562C69.2466 9.60475 69.1849 9.71097 69.147 9.82702C69.1092 9.94307 69.0961 10.0662 69.1086 10.188V12.3541H68.4011V8.65141Z" fill="white"/>
<path d="M75.4437 7.72949V8.66821H76.2204V9.28371H75.4437V11.1876C75.4437 11.5755 75.5984 11.7453 75.9506 11.7453C76.0408 11.745 76.1309 11.7394 76.2204 11.7285V12.3371C76.0934 12.3606 75.9646 12.3731 75.8355 12.3745C75.0487 12.3745 74.7354 12.0886 74.7354 11.3747V9.28368H74.1663V8.66817H74.7354V7.72949H75.4437Z" fill="white"/>
<path d="M77.1868 7.20581H77.8881V9.24625H77.944C78.0381 9.03302 78.1935 8.85492 78.3891 8.73623C78.5847 8.61753 78.811 8.56402 79.0372 8.58297C79.2107 8.57322 79.3842 8.60314 79.5452 8.6706C79.7063 8.73806 79.8509 8.8414 79.9688 8.97324C80.0868 9.10509 80.1751 9.26218 80.2274 9.43333C80.2798 9.60447 80.295 9.78545 80.2718 9.96334V12.3539H79.5636V10.1436C79.5636 9.55219 79.2969 9.25267 78.797 9.25267C78.6754 9.24237 78.5531 9.25963 78.4386 9.30326C78.3241 9.34688 78.2203 9.41581 78.1343 9.50522C78.0483 9.59464 77.9823 9.70237 77.9408 9.82089C77.8994 9.93941 77.8835 10.0659 77.8943 10.1914V12.3539H77.1868L77.1868 7.20581Z" fill="white"/>
<path d="M84.3972 11.354C84.301 11.6924 84.0927 11.9852 83.8088 12.181C83.5248 12.3768 83.1832 12.4633 82.8437 12.4252C82.6075 12.4317 82.3728 12.385 82.1559 12.2883C81.9389 12.1917 81.7449 12.0474 81.5873 11.8656C81.4298 11.6838 81.3124 11.4687 81.2434 11.2353C81.1744 11.0019 81.1554 10.7558 81.1877 10.5141C81.1562 10.2716 81.1756 10.025 81.2444 9.79091C81.3133 9.55683 81.43 9.34076 81.5868 9.15733C81.7435 8.9739 81.9366 8.8274 82.1529 8.72773C82.3692 8.62806 82.6037 8.57757 82.8406 8.57965C83.8381 8.57965 84.4399 9.28352 84.4399 10.4462V10.7012H81.9084V10.7422C81.8973 10.878 81.9138 11.0148 81.9569 11.1437C82 11.2726 82.0687 11.3908 82.1586 11.4906C82.2485 11.5905 82.3576 11.6699 82.4789 11.7236C82.6003 11.7774 82.7311 11.8044 82.8631 11.8029C83.0324 11.8239 83.2039 11.7924 83.3557 11.7125C83.5076 11.6325 83.633 11.5078 83.7161 11.354L84.3972 11.354ZM81.9084 10.1608H83.7192C83.7281 10.0365 83.7117 9.91168 83.6711 9.79433C83.6306 9.67697 83.5667 9.56968 83.4836 9.47935C83.4005 9.38901 83.3 9.31764 83.1886 9.2698C83.0772 9.22196 82.9573 9.19873 82.8367 9.20158C82.7143 9.19999 82.5929 9.22372 82.4795 9.27137C82.3662 9.31902 82.2632 9.38962 82.1767 9.47901C82.0902 9.5684 82.0219 9.67478 81.9758 9.79187C81.9297 9.90896 81.9068 10.0344 81.9084 10.1608H81.9084Z" fill="white"/>
</svg>
