<svg width="25" height="24" viewBox="0 0 25 24" fill="none" xmlns="http://www.w3.org/2000/svg">
<rect x="0.599724" width="24" height="24" rx="4" fill="#081833"/>
<path d="M12.5997 6.09728C14.5222 6.09728 14.7499 6.10462 15.5092 6.13926C16.2111 6.17127 16.5924 6.28857 16.8461 6.38717C17.1822 6.51778 17.422 6.6738 17.6739 6.92574C17.9259 7.1777 18.0819 7.41755 18.2125 7.75362C18.3111 8.00733 18.4284 8.38856 18.4605 9.09056C18.4951 9.84976 18.5024 10.0775 18.5024 11.9999C18.5024 13.9224 18.4951 14.1502 18.4605 14.9094C18.4284 15.6114 18.3111 15.9926 18.2125 16.2463C18.0819 16.5824 17.9259 16.8222 17.674 17.0742C17.422 17.3261 17.1822 17.4821 16.8461 17.6128C16.5924 17.7114 16.2111 17.8287 15.5092 17.8607C14.7501 17.8953 14.5224 17.9026 12.5997 17.9026C10.6771 17.9026 10.4494 17.8953 9.69032 17.8607C8.98832 17.8287 8.60709 17.7114 8.35338 17.6128C8.0173 17.4821 7.77746 17.3261 7.52552 17.0742C7.27358 16.8222 7.11753 16.5824 6.98692 16.2463C6.88832 15.9926 6.77102 15.6114 6.73901 14.9094C6.70437 14.1502 6.69703 13.9224 6.69703 11.9999C6.69703 10.0775 6.70437 9.84976 6.73901 9.09056C6.77102 8.38856 6.88832 8.00733 6.98692 7.75362C7.11753 7.41755 7.27355 7.1777 7.52552 6.92577C7.77746 6.6738 8.0173 6.51778 8.35338 6.38717C8.60709 6.28857 8.98832 6.17127 9.69032 6.13926C10.4495 6.10462 10.6773 6.09728 12.5997 6.09728ZM12.5997 4.79999C10.6443 4.79999 10.3991 4.80828 9.63118 4.84332C8.86483 4.87827 8.34143 4.99999 7.88346 5.17796C7.41 5.36196 7.00847 5.60815 6.60817 6.00842C6.2079 6.40872 5.96171 6.81024 5.77774 7.28371C5.59974 7.74168 5.47802 8.26507 5.44306 9.03142C5.40802 9.79938 5.39973 10.0446 5.39973 11.9999C5.39973 13.9554 5.40802 14.2006 5.44306 14.9685C5.47802 15.7349 5.59974 16.2582 5.77774 16.7162C5.96171 17.1897 6.2079 17.5912 6.60817 17.9915C7.00847 18.3918 7.41 18.638 7.88346 18.8219C8.34143 18.9999 8.86483 19.1217 9.63118 19.1566C10.3991 19.1916 10.6443 19.1999 12.5997 19.1999C14.5551 19.1999 14.8003 19.1916 15.5683 19.1566C16.3346 19.1217 16.858 18.9999 17.316 18.8219C17.7895 18.638 18.191 18.3918 18.5913 17.9915C18.9916 17.5912 19.2378 17.1897 19.4218 16.7162C19.5997 16.2582 19.7215 15.7349 19.7564 14.9685C19.7914 14.2006 19.7997 13.9554 19.7997 11.9999C19.7997 10.0446 19.7914 9.79938 19.7564 9.03142C19.7215 8.26507 19.5997 7.74168 19.4218 7.28371C19.2378 6.81024 18.9916 6.40872 18.5913 6.00842C18.191 5.60815 17.7895 5.36196 17.316 5.17796C16.858 4.99999 16.3346 4.87827 15.5683 4.84332C14.8003 4.80828 14.5551 4.79999 12.5997 4.79999Z" fill="white"/>
<path d="M12.603 8.30621C10.561 8.30621 8.9057 9.96153 8.9057 12.0035C8.9057 14.0455 10.561 15.7008 12.603 15.7008C14.645 15.7008 16.3003 14.0455 16.3003 12.0035C16.3003 9.96153 14.645 8.30621 12.603 8.30621ZM12.603 14.4035C11.2775 14.4035 10.203 13.329 10.203 12.0035C10.203 10.678 11.2775 9.6035 12.603 9.6035C13.9285 9.6035 15.003 10.678 15.003 12.0035C15.003 13.329 13.9285 14.4035 12.603 14.4035Z" fill="white"/>
<path d="M17.3099 8.1579C17.3099 8.63505 16.923 9.02188 16.4459 9.02188C15.9687 9.02188 15.5819 8.63505 15.5819 8.1579C15.5819 7.68072 15.9687 7.29388 16.4459 7.29388C16.923 7.29388 17.3099 7.68072 17.3099 8.1579Z" fill="white"/>
</svg>
