<svg width="24" height="24" viewBox="0 0 24 24" fill="none" xmlns="http://www.w3.org/2000/svg">
<rect width="24" height="24" rx="4" fill="#081833"/>
<path fill-rule="evenodd" clip-rule="evenodd" d="M8.26484 7.37033C8.26484 8.11739 7.69602 8.72196 6.80649 8.72196C5.95161 8.72196 5.38279 8.11739 5.40039 7.37033C5.38279 6.58697 5.9516 6 6.82353 6C7.69601 6 8.24779 6.58697 8.26484 7.37033ZM5.47191 18.4914V9.78973H8.17627V18.4909H5.47191V18.4914Z" fill="white"/>
<path fill-rule="evenodd" clip-rule="evenodd" d="M10.3433 12.5667C10.3433 11.4814 10.3075 10.5561 10.2718 9.79087H12.6208L12.7456 10.983H12.799C13.1549 10.4312 14.0445 9.59558 15.4858 9.59558C17.2649 9.59558 18.5994 10.7701 18.5994 13.3314V18.4926H15.8951V13.6703C15.8951 12.5486 15.5039 11.7839 14.5253 11.7839C13.7777 11.7839 13.3332 12.2999 13.1555 12.7978C13.084 12.976 13.0488 13.2247 13.0488 13.4744V18.4926H10.3444V12.5667H10.3433Z" fill="white"/>
</svg>
