<svg width="324" height="48" viewBox="0 0 324 48" fill="none" xmlns="http://www.w3.org/2000/svg">
<path d="M318.655 41.0607H262.884C262.257 43.1107 260.858 44.7766 259.056 45.7669L315.36 44.5975C317.154 44.5604 318.681 43.2818 319.033 41.5224C319.081 41.2835 318.899 41.0607 318.655 41.0607Z" fill="#FFD700"/>
<path d="M262.884 41.0607H207.075C207.073 41.0692 207.075 41.0766 207.073 41.0851C206.452 43.8817 203.492 45.8762 201.839 46.9548L233.136 46.3051L259.056 45.7669C260.859 44.7766 262.257 43.1108 262.884 41.0607Z" fill="#00D1FF"/>
<path d="M159.026 41.0607C156.276 41.0607 153.805 42.454 152.343 44.6253C151.974 45.1723 151.677 45.7723 151.447 46.4078C151.315 46.7734 151.2 47.1475 151.121 47.5382C151.073 47.7802 151.261 48.0049 151.508 47.9999L189.79 47.205L201.84 46.9548C204.424 46.0599 206.452 43.8817 207.074 41.085C207.075 41.0765 207.074 41.0692 207.075 41.0607H159.026Z" fill="#6559FF"/>
<path d="M314.911 19.6351H305.503C305.202 19.6351 305.017 19.3046 305.171 19.0459C305.728 18.1128 306.42 17.3519 307.247 16.7623C308.242 16.0535 309.403 15.6991 310.731 15.6991C312.073 15.6991 313.14 16.035 313.932 16.7056C314.624 17.292 315.076 18.112 315.291 19.1648C315.34 19.4061 315.158 19.6351 314.911 19.6351ZM319.926 12.2152C317.777 10.1196 314.984 9.07108 311.545 9.07108C309.313 9.07108 307.228 9.4668 305.291 10.2586C303.352 11.0505 301.708 12.1287 300.359 13.4935C299.009 14.8586 297.946 16.4832 297.169 18.3684C296.392 20.2539 296.004 22.2592 296.004 24.3857C296.004 26.4816 296.472 28.3896 297.407 30.1087C298.342 31.8279 299.676 33.1888 301.411 34.1918C303.145 35.1948 305.105 35.6963 307.292 35.6963C310.52 35.6963 313.426 34.8782 316.013 33.2417C318.24 31.8325 319.771 30.4234 320.972 28.2004C321.25 27.6858 320.877 27.0584 320.292 27.0584H313.842C313.422 27.0584 313.031 27.2406 312.735 27.5375C312.341 27.9325 311.943 28.1143 311.281 28.4421C310.399 28.8799 309.419 28.8872 308.378 28.8872C306.9 28.8872 305.769 28.5104 304.985 27.756C304.2 27.002 303.801 25.8863 303.786 24.408H319.283C321.326 24.408 323.049 22.8178 323.139 20.7771C323.149 20.552 323.152 20.3296 323.15 20.1099C323.15 16.943 322.075 14.3116 319.926 12.2152Z" fill="#293745"/>
<path d="M96.671 19.6351H87.2629C86.9617 19.6351 86.7764 19.3046 86.9309 19.0459C87.4872 18.1128 88.1794 17.3519 89.0067 16.7623C90.002 16.0535 91.1629 15.6991 92.4906 15.6991C93.8322 15.6991 94.8997 16.035 95.6915 16.7056C96.3834 17.292 96.8358 18.112 97.0501 19.1648C97.0991 19.4061 96.9173 19.6351 96.671 19.6351ZM93.3048 9.07108C91.0726 9.07108 88.9874 9.4668 87.0501 10.2586C85.1117 11.0505 83.4678 12.1287 82.1185 13.4935C80.7684 14.8586 79.7052 16.4832 78.9292 18.3684C78.152 20.2539 77.764 22.2592 77.764 24.3857C77.764 26.4816 78.2312 28.3896 79.1666 30.1087C80.1013 31.8279 81.4359 33.1888 83.1705 34.1918C84.9044 35.1948 86.8648 35.6963 89.0519 35.6963C92.2791 35.6963 95.1858 34.8782 97.7724 33.2417C99.9997 31.8325 101.53 30.4234 102.732 28.2004C103.01 27.6858 102.636 27.0584 102.051 27.0584H95.6012C95.1819 27.0584 94.7904 27.2406 94.4943 27.5375C94.1009 27.9325 93.7017 28.1143 93.0404 28.4421C92.1578 28.8799 91.1784 28.8872 90.1379 28.8872C88.6597 28.8872 87.5285 28.5104 86.7448 27.756C86.0359 27.075 85.641 26.0983 85.5607 24.8262C85.5464 24.6011 85.7213 24.408 85.9468 24.408H101.042C103.085 24.408 104.809 22.8178 104.898 20.7771C104.908 20.552 104.912 20.3296 104.909 20.1099C104.909 16.943 103.835 14.3116 101.686 12.2152C99.5368 10.1196 96.7432 9.07108 93.3048 9.07108Z" fill="#293745"/>
<path d="M78.9338 13.817L79.4631 11.1709C79.5585 10.6929 79.1933 10.2474 78.7061 10.2474H74.142C73.8999 10.2474 73.7173 10.0274 73.7625 9.78955L73.9925 8.57343C74.1126 7.92522 74.3995 7.41214 74.8519 7.03495C75.3044 6.65853 75.8623 6.46974 76.5259 6.46974H77.1927C79.0292 6.46974 80.6113 5.17603 80.9765 3.37617L81.4734 0.925407C81.5703 0.447068 81.2047 0 80.7167 0H75.6665C73.0571 0 70.9534 0.670988 69.3551 2.01335C67.756 3.35571 66.7155 5.27061 66.2333 7.75883L65.7979 9.93703C65.7616 10.1173 65.6033 10.2474 65.4191 10.2474H63.3818C62.2777 10.2474 61.3272 11.0265 61.1106 12.1094L60.3331 15.9968C60.2373 16.4747 60.6029 16.9206 61.0901 16.9206H63.8397C64.0833 16.9206 64.2659 17.1434 64.2181 17.3824L60.8986 33.981C60.8029 34.4586 61.1685 34.9045 61.6557 34.9045H65.8507C67.6911 34.9045 69.2756 33.6054 69.6365 31.8009L72.5506 17.231C72.5865 17.0503 72.7452 16.9206 72.9289 16.9206H75.1481C76.9884 16.9206 78.5729 15.6215 78.9338 13.817Z" fill="#293745"/>
<path d="M231.836 0.859375H227.664C225.824 0.859375 224.239 2.1585 223.878 3.96298L218.244 32.1336C217.957 33.5671 219.054 34.9045 220.515 34.9045H225.336C225.704 34.9045 226.021 34.6446 226.093 34.2837L232.593 1.78285C232.689 1.30528 232.324 0.859375 231.836 0.859375Z" fill="#293745"/>
<path d="M250.994 9.88529H245.957C245.714 9.88529 245.531 9.66292 245.578 9.42433L246.752 3.50087C246.846 3.0233 246.481 2.57855 245.995 2.57855H245.514C245.322 2.57855 245.137 2.64997 244.995 2.77892L231.597 14.9297L231.398 15.9292C231.302 16.4068 231.668 16.8527 232.155 16.8527H235.424C235.668 16.8527 235.851 17.0727 235.803 17.3117C235.665 18.0012 235.492 18.8583 235.285 19.8837C234.742 22.6136 234.398 24.3891 234.255 25.2111C234.112 26.0334 234.04 26.7306 234.04 27.3036C234.04 29.6416 234.776 31.4924 236.246 32.8572C237.717 34.2223 239.741 34.9045 242.32 34.9045H243.815C245.655 34.9045 247.24 33.6054 247.601 31.8009L248.288 28.3629C248.384 27.885 248.018 27.4395 247.531 27.4395H245.419C244.514 27.4395 243.82 27.2325 243.338 26.8171C242.855 26.4025 242.614 25.8029 242.614 25.0188C242.614 24.6501 243.113 22.0314 244.111 17.1642C244.148 16.9847 244.306 16.8527 244.49 16.8527H247.383C249.226 16.8527 250.812 15.5501 251.17 13.7421L251.751 10.8076C251.846 10.33 251.481 9.88529 250.994 9.88529Z" fill="#293745"/>
<path d="M125.509 9.88529H120.472C120.229 9.88529 120.046 9.66292 120.093 9.42433L121.267 3.50087C121.361 3.0233 120.996 2.57855 120.51 2.57855H120.029C119.837 2.57855 119.652 2.64997 119.51 2.77892L106.112 14.9297L105.913 15.9292C105.817 16.4068 106.183 16.8527 106.67 16.8527H109.939C110.183 16.8527 110.366 17.0727 110.318 17.3117C110.18 18.0012 110.007 18.8583 109.8 19.8837C109.257 22.6136 108.913 24.3891 108.77 25.2111C108.627 26.0334 108.555 26.7306 108.555 27.3036C108.555 29.6416 109.291 31.4924 110.761 32.8572C112.231 34.2223 114.256 34.9045 116.835 34.9045H118.33C120.17 34.9045 121.755 33.6054 122.116 31.8009L122.803 28.3629C122.899 27.885 122.533 27.4395 122.046 27.4395H119.934C119.029 27.4395 118.335 27.2325 117.853 26.8171C117.37 26.4025 117.129 25.8029 117.129 25.0188C117.129 24.6501 117.628 22.0314 118.626 17.1642C118.663 16.9847 118.821 16.8527 119.005 16.8527H121.898C123.741 16.8527 125.327 15.5501 125.685 13.7421L126.266 10.8076C126.361 10.33 125.996 9.88529 125.509 9.88529Z" fill="#293745"/>
<path d="M278.111 9.88528H273.918C272.077 9.88528 270.491 11.1863 270.132 12.9924L268.058 23.4127C267.771 24.8304 267.188 25.9801 266.305 26.8627C265.423 27.7448 264.378 28.1857 263.172 28.1857C261.03 28.1857 259.96 27.2283 259.96 25.313C259.96 25.0721 259.982 24.7779 260.028 24.4308C260.1 23.9502 260.996 19.4096 262.716 10.8099C262.811 10.332 262.446 9.88528 261.959 9.88528H257.768C255.934 9.88528 254.353 11.1736 253.986 12.9707C253.813 13.8193 253.625 14.744 253.422 15.7443C252.547 19.9968 252.023 22.6062 251.85 23.571C251.676 24.5362 251.59 25.4033 251.59 26.1727C251.59 29.008 252.547 31.304 254.463 33.0606C256.378 34.8176 258.926 35.6959 262.109 35.6959C265.788 35.6959 268.865 34.7346 271.339 32.812C273.811 30.889 275.395 28.2008 276.089 24.7474L278.868 10.8084C278.963 10.3308 278.598 9.88528 278.111 9.88528Z" fill="#293745"/>
<path d="M218.932 9.88528H214.74C212.898 9.88528 211.313 11.1863 210.954 12.9924L208.88 23.4127C208.593 24.8304 208.009 25.9801 207.127 26.8627C206.244 27.7448 205.2 28.1857 203.993 28.1857C201.852 28.1857 200.781 27.2283 200.781 25.313C200.781 25.0721 200.804 24.7779 200.849 24.4308C200.922 23.9502 201.818 19.4096 203.537 10.8099C203.633 10.332 203.268 9.88528 202.78 9.88528H198.59C196.755 9.88528 195.175 11.1736 194.808 12.9707C194.634 13.8193 194.446 14.744 194.244 15.7443C193.369 19.9968 192.845 22.6062 192.672 23.571C192.498 24.5362 192.411 25.4033 192.411 26.1727C192.411 29.008 193.369 31.304 195.285 33.0606C197.199 34.8176 199.748 35.6959 202.931 35.6959C206.61 35.6959 209.686 34.7346 212.16 32.812C214.633 30.889 216.216 28.2008 216.91 24.7474L219.689 10.8084C219.785 10.3308 219.42 9.88528 218.932 9.88528Z" fill="#293745"/>
<path d="M297.215 14.288L297.929 10.6953C298.024 10.2177 297.659 9.77255 297.172 9.77255H295.693C292.975 9.77255 290.643 10.5462 288.693 12.0936C288.48 12.2627 288.162 12.1507 288.089 11.889L287.684 10.4489C287.591 10.1158 287.287 9.88567 286.941 9.88567H285.217C283.377 9.88567 281.792 11.1848 281.432 12.9897L277.606 32.1344C277.32 33.5675 278.416 34.9049 279.878 34.9049H284.699C285.067 34.9049 285.384 34.645 285.456 34.2844L287.978 21.7164C288.325 20.1933 288.921 19.0926 289.766 18.4139C290.61 17.7352 291.802 17.3959 293.34 17.3959H293.429C295.271 17.3959 296.856 16.0944 297.215 14.288Z" fill="#293745"/>
<path d="M17.8832 1.80835C15.0927 1.80835 12.6613 2.23804 10.5881 3.09782C8.51373 3.95721 6.87371 5.28451 5.66763 7.07896C4.46078 8.87418 3.85813 11.0377 3.85813 13.5715C3.85813 16.7087 5.79002 18.9761 8.59674 20.1767C10.7081 21.0797 13.0168 21.416 15.1858 22.1712C16.9852 22.7981 18.4635 24.0942 17.5095 26.1083C16.7934 27.6201 14.9962 28.3131 13.4091 28.3131C11.0711 28.3131 10.0468 26.3141 9.67039 25.267C9.54222 24.9103 9.17159 24.7045 8.79942 24.7767L1.78842 26.1388C1.19155 26.255 0.788882 26.8109 0.85683 27.4147C1.10314 29.5995 2.07951 32.0124 3.80138 33.3988C5.81473 35.0199 8.57049 35.8307 12.0694 35.8307C14.9495 35.8307 17.4945 35.3631 19.7043 34.4281C23.5978 32.7799 26.3509 29.1497 26.8061 24.9269C27.0103 23.0348 26.6451 21.0994 25.6791 19.5154C25.1726 18.685 24.5012 17.951 23.66 17.37C21.1158 15.6138 17.9018 15.3991 15.0781 14.3096C14.2187 13.9784 13.1431 13.5325 12.8157 12.5889C12.3937 11.3732 13.1971 10.1077 14.2735 9.55906C15.2105 9.08072 16.5463 8.96491 17.5678 9.195C18.7994 9.4722 19.5171 10.4127 19.6418 11.5523C19.6897 11.989 20.1209 12.2797 20.5525 12.1959L27.3805 10.8694C27.9701 10.7547 28.3731 10.2073 28.3137 9.61003C27.662 3.0596 21.0077 1.80835 17.8832 1.80835Z" fill="#293745"/>
<path d="M153.174 9.88528H149.035C147.678 9.88528 146.419 10.5987 145.722 11.7639L139.229 22.6178C139.204 22.6607 139.172 22.6939 139.137 22.7217C138.926 22.8912 138.58 22.7935 138.52 22.4962L136.592 12.9796C136.228 11.1794 134.645 9.88528 132.808 9.88528H129.33C128.324 9.88528 127.586 10.8323 127.833 11.8079L133.136 32.7954L132.093 34.5477L130.293 37.5683C129.842 38.3258 129.534 39.1427 129.363 39.9824C129.32 40.1936 129.29 40.4063 129.264 40.6198C129.125 41.8039 129.256 43.0142 129.669 44.1535C129.779 44.4566 129.908 44.7542 130.057 45.0453L130.533 45.9727L131.363 47.5891C131.543 47.9401 132.003 47.9934 132.265 47.7328C132.296 47.7023 132.326 47.6698 132.35 47.6305L133.347 46.0314L134.456 44.2531L136.721 40.6198L137.119 39.9824L137.387 39.5527L139.347 36.4217L145.565 26.4909L154.482 12.2492C155.126 11.2207 154.387 9.88528 153.174 9.88528Z" fill="#293745"/>
<path d="M180.117 11.1975C181.064 12.0264 181.715 13.107 182.076 14.4359C182.182 14.8289 182.566 15.0791 182.966 15.0026L189.37 13.7811C189.966 13.6672 190.372 13.114 190.304 12.5102C190.086 10.5883 189.04 6.49483 184.2 3.42712C182.096 2.09325 179.597 1.61761 176.928 1.61761C174.168 1.61761 171.544 2.12645 169.056 3.14452C166.567 4.1622 164.425 5.54239 162.631 7.28395C160.836 9.02589 159.411 11.1222 158.356 13.5726C157.3 16.0238 156.772 18.6213 156.772 21.3658C156.772 24.0502 157.372 26.4747 158.571 28.6386C161.953 34.7427 169.804 36.9279 176.26 35.3921C181.787 34.0775 189.137 29.5632 190.121 20.833C190.243 19.749 189.095 19.5135 188.56 20.4215C184.627 27.109 173.824 32.0889 167.948 26.2658C163.987 22.3414 165.413 17.0306 168.043 13.6788C170.658 10.3478 176.539 8.06806 180.117 11.1975Z" fill="#293745"/>
<path d="M46.6608 26.1048C45.2957 27.5225 43.6931 28.2313 41.8539 28.2313C40.4061 28.2313 39.2525 27.8093 38.3928 26.9646C37.533 26.1199 37.1033 25.0041 37.1033 23.6166C37.1033 21.7017 37.7777 20.0389 39.1278 18.6286C40.4771 17.2183 42.0647 16.5133 43.8896 16.5133C45.3374 16.5133 46.5025 16.9399 47.3847 17.7916C48.2668 18.6437 48.7081 19.7632 48.7081 21.1508C48.7081 23.0363 48.0252 24.6876 46.6608 26.1048ZM56.4696 9.8853H53.8158C53.2838 9.8853 52.7893 10.1594 52.507 10.61L51.7075 11.8871C51.5743 12.0998 51.2809 12.126 51.1029 11.9488C49.1899 10.0459 46.7477 9.09348 43.7765 9.09348C41.7705 9.09348 39.8478 9.48186 38.0082 10.2586C36.1678 11.0358 34.5618 12.0948 33.1897 13.4367C31.8172 14.7795 30.7243 16.4153 29.9097 18.3456C29.0954 20.2763 28.6881 22.3349 28.6881 24.5212C28.6881 27.8545 29.7247 30.55 31.7987 32.6085C33.8719 34.667 36.5072 35.6963 39.7046 35.6963C42.5164 35.6963 45.1096 34.9018 47.4847 33.3135C47.714 33.1598 48.0248 33.2795 48.0819 33.5494L48.239 34.2922C48.3147 34.6493 48.6297 34.9045 48.9946 34.9045H51.1299C52.9703 34.9045 54.5551 33.605 54.9157 31.8001L58.7413 12.6557C59.0277 11.2223 57.9313 9.8853 56.4696 9.8853Z" fill="#293745"/>
</svg>
