<svg width="24" height="24" viewBox="0 0 24 24" fill="none" xmlns="http://www.w3.org/2000/svg">
<rect width="24" height="24" rx="4" fill="#081833"/>
<path fill-rule="evenodd" clip-rule="evenodd" d="M19.2 7.38519C18.6706 7.62037 18.1009 7.77876 17.5033 7.85027C18.1134 7.48454 18.5818 6.9057 18.8021 6.21598C18.2319 6.55484 17.5988 6.80011 16.9264 6.93306C16.3874 6.35902 15.619 6 14.7699 6C13.1385 6 11.8157 7.32279 11.8157 8.9542C11.8157 9.18555 11.8421 9.41113 11.8925 9.6276C9.43697 9.50473 7.26032 8.32832 5.80313 6.54092C5.54875 6.97721 5.40332 7.48454 5.40332 8.02595C5.40332 9.05068 5.92409 9.95494 6.71747 10.4848C6.23271 10.4695 5.77769 10.3365 5.37884 10.1152V10.1522C5.37884 11.5839 6.39781 12.7776 7.74844 13.0498C7.50078 13.117 7.23968 13.1534 6.97042 13.1534C6.77987 13.1534 6.5946 13.1347 6.41413 13.1002C6.78995 14.2737 7.8814 15.128 9.17395 15.152C8.16314 15.944 6.8893 16.4167 5.50507 16.4167C5.26605 16.4167 5.03087 16.4028 4.8 16.375C6.10743 17.213 7.66013 17.7026 9.3285 17.7026C14.7622 17.7026 17.7337 13.201 17.7337 9.29738C17.7337 9.16923 17.7313 9.04156 17.7251 8.91533C18.3029 8.49776 18.804 7.97747 19.2 7.38519Z" fill="white"/>
</svg>
